<svg viewBox="144 415 172 180" xmlns="http://www.w3.org/2000/svg">
  <rect x="144" y="415" width="172" height="180" rx="20" fill="#FFFFFF"/>
  <path d="M 149.30 593.99 C155.04,596.30 157.99,595.25 176.00,584.49 C191.72,575.10 190.77,575.28 227.51,574.55 C245.11,574.20 262.42,573.44 266.00,572.85 C275.74,571.27 287.36,565.30 295.56,557.68 C303.20,550.57 308.07,543.26 311.50,533.74 C315.73,522.01 316.18,513.93 315.31,465.77 L 314.50 421.04 L 311.73 418.27 L 308.95 415.50 L 247.73 415.50 C191.79,415.50 186.02,415.65 180.89,417.28 C167.88,421.41 157.11,430.56 150.53,443.07 C144.14,455.24 144.04,456.50 144.02,525.30 L 144.02 526.13 C144.00,583.33 144.00,590.75 147.45,593.10 C147.98,593.46 148.60,593.70 149.30,593.99 ZM 242.03 545.11 C232.39,545.53 215.45,545.90 204.40,545.94 C185.07,546.00 184.16,545.91 180.91,543.72 C175.61,540.14 175.03,538.06 175.01,522.36 L 175.00 508.23 L 179.25 507.71 C181.59,507.42 199.25,507.10 218.50,507.00 C244.46,506.87 254.27,506.49 256.50,505.53 C260.38,503.87 264.90,499.04 265.83,495.56 C266.82,491.83 265.72,481.32 264.17,479.76 C263.19,478.79 252.74,478.44 218.95,478.22 L 175.00 477.94 L 175.00 470.59 C175.00,458.52 179.45,451.31 189.72,446.72 L 195.50 444.14 L 239.33 443.82 C280.30,443.52 283.24,443.62 284.45,445.27 C286.24,447.71 287.40,490.62 286.12,506.66 C285.33,516.52 284.62,519.92 282.41,524.60 C278.92,531.98 272.43,538.46 265.22,541.75 C260.10,544.10 257.86,544.42 242.03,545.11 Z" fill="#000000"/>
</svg>
