<svg viewBox="0 0 172 180" xmlns="http://www.w3.org/2000/svg">
  <rect width="172" height="180" rx="20" fill="#0C0E12"/>
  <path d="M 5.30 178.99 C 11.04 181.30 13.99 180.25 32.00 169.49 C 47.72 160.10 46.77 160.28 83.51 159.55 C 101.11 159.20 118.42 158.44 122.00 157.85 C 131.74 156.27 143.36 150.30 151.56 142.68 C 159.20 135.57 164.07 128.26 167.50 118.74 C 171.73 107.01 172.18 98.93 171.31 50.77 L 170.50 6.04 L 167.73 3.27 L 164.95 0.50 L 103.73 0.50 C 47.79 0.50 42.02 0.65 36.89 2.28 C 23.88 6.41 13.11 15.56 6.53 28.07 C 0.14 40.24 0.04 41.50 0.02 110.30 L 0.02 111.13 C 0.00 168.33 0.00 175.75 3.45 178.10 C 3.98 178.46 4.60 178.70 5.30 178.99 Z M 98.03 130.11 C 88.39 130.53 71.45 130.90 60.40 130.94 C 41.07 131.00 40.16 130.91 36.91 128.72 C 31.61 125.14 31.03 123.06 31.01 107.36 L 31.00 93.23 L 35.25 92.71 C 37.59 92.42 55.25 92.10 74.50 92.00 C 100.46 91.87 110.27 91.49 112.50 90.53 C 116.38 88.87 120.90 84.04 121.83 80.56 C 122.82 76.83 121.72 66.32 120.17 64.76 C 119.19 63.79 108.74 63.44 74.95 63.22 L 31.00 62.94 L 31.00 55.59 C 31.00 43.52 35.45 36.31 45.72 31.72 L 51.50 29.14 L 95.33 28.82 C 136.30 28.52 139.24 28.62 140.45 30.27 C 142.24 32.71 143.40 75.62 142.12 91.66 C 141.33 101.52 140.62 104.92 138.41 109.60 C 134.92 116.98 128.43 123.46 121.22 126.75 C 116.10 129.10 113.86 129.42 98.03 130.11 Z" fill="#FFFFFF"/>
</svg>

